<svg xmlns="http://www.w3.org/2000/svg"  viewBox="0 0 64 64" width="64px" height="64px"><path d="M 16 8 C 11.582 8 8 11.582 8 16 L 8 33.402344 L 18.65625 37.140625 C 20.11925 35.234625 22.412 34 25 34 C 25.182 34 25.360063 34.015344 25.539062 34.027344 L 29.060547 27.689453 C 29.020547 27.298453 29 26.902 29 26.5 C 29 20.149 34.149 15 40.5 15 C 46.851 15 52 20.149 52 26.5 C 52 32.851 46.851 38 40.5 38 C 39.871 38 39.259203 37.936844 38.658203 37.839844 L 32.970703 41.394531 C 32.984703 41.595531 33 41.795 33 42 C 33 46.418 29.418 50 25 50 C 20.582 50 17 46.418 17 42 C 17 41.742 17.015062 41.488328 17.039062 41.236328 L 8 36.912109 L 8 48 C 8 52.418 11.582 56 16 56 L 48 56 C 52.418 56 56 52.418 56 48 L 56 16 C 56 11.582 52.418 8 48 8 L 16 8 z M 40.5 19 C 36.358 19 33 22.358 33 26.5 C 33 30.642 36.358 34 40.5 34 C 44.642 34 48 30.642 48 26.5 C 48 22.358 44.642 19 40.5 19 z M 40.5 23 C 42.433 23 44 24.567 44 26.5 C 44 28.433 42.433 30 40.5 30 C 38.567 30 37 28.433 37 26.5 C 37 24.567 38.567 23 40.5 23 z M 25 37 C 23.754 37 22.629906 37.472563 21.753906 38.226562 L 25.189453 39.431641 C 26.266453 39.769641 27 40.767484 27 41.896484 C 27 43.798484 25.014828 45.051469 23.298828 44.230469 L 20.070312 42.685547 C 20.406312 45.119547 22.473 47 25 47 C 27.761 47 30 44.761 30 42 C 30 39.239 27.761 37 25 37 z"/></svg>